<svg id="visual" viewBox="0 0 675 900" width="675" height="900" xmlns="http://www.w3.org/2000/svg" xmlns:xlink="http://www.w3.org/1999/xlink" version="1.1"><path d="M0 118L10.2 116.5C20.3 115 40.7 112 61.2 104.5C81.7 97 102.3 85 122.8 86.5C143.3 88 163.7 103 184 98.5C204.3 94 224.7 70 245.2 68.5C265.7 67 286.3 88 306.8 98.5C327.3 109 347.7 109 368.2 107.5C388.7 106 409.3 103 429.8 95.5C450.3 88 470.7 76 491 77.5C511.3 79 531.7 94 552.2 92.5C572.7 91 593.3 73 613.8 68.5C634.3 64 654.7 73 664.8 77.5L675 82L675 0L664.8 0C654.7 0 634.3 0 613.8 0C593.3 0 572.7 0 552.2 0C531.7 0 511.3 0 491 0C470.7 0 450.3 0 429.8 0C409.3 0 388.7 0 368.2 0C347.7 0 327.3 0 306.8 0C286.3 0 265.7 0 245.2 0C224.7 0 204.3 0 184 0C163.7 0 143.3 0 122.8 0C102.3 0 81.7 0 61.2 0C40.7 0 20.3 0 10.2 0L0 0Z" fill="#f1f1a3"></path><path d="M0 406L10.2 383.5C20.3 361 40.7 316 61.2 317.5C81.7 319 102.3 367 122.8 385C143.3 403 163.7 391 184 358C204.3 325 224.7 271 245.2 281.5C265.7 292 286.3 367 306.8 373C327.3 379 347.7 316 368.2 283C388.7 250 409.3 247 429.8 251.5C450.3 256 470.7 268 491 265C511.3 262 531.7 244 552.2 235C572.7 226 593.3 226 613.8 224.5C634.3 223 654.7 220 664.8 218.5L675 217L675 80L664.8 75.5C654.7 71 634.3 62 613.8 66.5C593.3 71 572.7 89 552.2 90.5C531.7 92 511.3 77 491 75.5C470.7 74 450.3 86 429.8 93.5C409.3 101 388.7 104 368.2 105.5C347.7 107 327.3 107 306.8 96.5C286.3 86 265.7 65 245.2 66.5C224.7 68 204.3 92 184 96.5C163.7 101 143.3 86 122.8 84.5C102.3 83 81.7 95 61.2 102.5C40.7 110 20.3 113 10.2 114.5L0 116Z" fill="#f2e190"></path><path d="M0 505L10.2 479.5C20.3 454 40.7 403 61.2 397C81.7 391 102.3 430 122.8 449.5C143.3 469 163.7 469 184 446.5C204.3 424 224.7 379 245.2 392.5C265.7 406 286.3 478 306.8 472C327.3 466 347.7 382 368.2 343C388.7 304 409.3 310 429.8 331C450.3 352 470.7 388 491 392.5C511.3 397 531.7 370 552.2 350.5C572.7 331 593.3 319 613.8 317.5C634.3 316 654.7 325 664.8 329.5L675 334L675 215L664.8 216.5C654.7 218 634.3 221 613.8 222.5C593.3 224 572.7 224 552.2 233C531.7 242 511.3 260 491 263C470.7 266 450.3 254 429.8 249.5C409.3 245 388.7 248 368.2 281C347.7 314 327.3 377 306.8 371C286.3 365 265.7 290 245.2 279.5C224.7 269 204.3 323 184 356C163.7 389 143.3 401 122.8 383C102.3 365 81.7 317 61.2 315.5C40.7 314 20.3 359 10.2 381.5L0 404Z" fill="#f3d17f"></path><path d="M0 667L10.2 670C20.3 673 40.7 679 61.2 680.5C81.7 682 102.3 679 122.8 673C143.3 667 163.7 658 184 658C204.3 658 224.7 667 245.2 677.5C265.7 688 286.3 700 306.8 701.5C327.3 703 347.7 694 368.2 683.5C388.7 673 409.3 661 429.8 664C450.3 667 470.7 685 491 689.5C511.3 694 531.7 685 552.2 674.5C572.7 664 593.3 652 613.8 640C634.3 628 654.7 616 664.8 610L675 604L675 332L664.8 327.5C654.7 323 634.3 314 613.8 315.5C593.3 317 572.7 329 552.2 348.5C531.7 368 511.3 395 491 390.5C470.7 386 450.3 350 429.8 329C409.3 308 388.7 302 368.2 341C347.7 380 327.3 464 306.8 470C286.3 476 265.7 404 245.2 390.5C224.7 377 204.3 422 184 444.5C163.7 467 143.3 467 122.8 447.5C102.3 428 81.7 389 61.2 395C40.7 401 20.3 452 10.2 477.5L0 503Z" fill="#f3c171"></path><path d="M0 766L10.2 763C20.3 760 40.7 754 61.2 760C81.7 766 102.3 784 122.8 790C143.3 796 163.7 790 184 791.5C204.3 793 224.7 802 245.2 802C265.7 802 286.3 793 306.8 791.5C327.3 790 347.7 796 368.2 794.5C388.7 793 409.3 784 429.8 784C450.3 784 470.7 793 491 790C511.3 787 531.7 772 552.2 758.5C572.7 745 593.3 733 613.8 734.5C634.3 736 654.7 751 664.8 758.5L675 766L675 602L664.8 608C654.7 614 634.3 626 613.8 638C593.3 650 572.7 662 552.2 672.5C531.7 683 511.3 692 491 687.5C470.7 683 450.3 665 429.8 662C409.3 659 388.7 671 368.2 681.5C347.7 692 327.3 701 306.8 699.5C286.3 698 265.7 686 245.2 675.5C224.7 665 204.3 656 184 656C163.7 656 143.3 665 122.8 671C102.3 677 81.7 680 61.2 678.5C40.7 677 20.3 671 10.2 668L0 665Z" fill="#f4b067"></path><path d="M0 901L10.2 901C20.3 901 40.7 901 61.2 901C81.7 901 102.3 901 122.8 901C143.3 901 163.7 901 184 901C204.3 901 224.7 901 245.2 901C265.7 901 286.3 901 306.8 901C327.3 901 347.7 901 368.2 901C388.7 901 409.3 901 429.8 901C450.3 901 470.7 901 491 901C511.3 901 531.7 901 552.2 901C572.7 901 593.3 901 613.8 901C634.3 901 654.7 901 664.8 901L675 901L675 764L664.8 756.5C654.7 749 634.3 734 613.8 732.5C593.3 731 572.7 743 552.2 756.5C531.7 770 511.3 785 491 788C470.7 791 450.3 782 429.8 782C409.3 782 388.7 791 368.2 792.5C347.7 794 327.3 788 306.8 789.5C286.3 791 265.7 800 245.2 800C224.7 800 204.3 791 184 789.5C163.7 788 143.3 794 122.8 788C102.3 782 81.7 764 61.2 758C40.7 752 20.3 758 10.2 761L0 764Z" fill="#f49e5f"></path></svg>