<svg id="visual" viewBox="0 0 675 900" width="675" height="900" xmlns="http://www.w3.org/2000/svg" xmlns:xlink="http://www.w3.org/1999/xlink" version="1.1"><path d="M0 172L61 172L61 82L123 82L123 118L184 118L184 172L245 172L245 181L307 181L307 127L368 127L368 100L430 100L430 163L491 163L491 91L552 91L552 100L614 100L614 154L675 154L675 64L675 0L675 0L614 0L614 0L552 0L552 0L491 0L491 0L430 0L430 0L368 0L368 0L307 0L307 0L245 0L245 0L184 0L184 0L123 0L123 0L61 0L61 0L0 0Z" fill="#009473"></path><path d="M0 316L61 316L61 406L123 406L123 577L184 577L184 316L245 316L245 379L307 379L307 406L368 406L368 298L430 298L430 379L491 379L491 298L552 298L552 469L614 469L614 406L675 406L675 406L675 62L675 152L614 152L614 98L552 98L552 89L491 89L491 161L430 161L430 98L368 98L368 125L307 125L307 179L245 179L245 170L184 170L184 116L123 116L123 80L61 80L61 170L0 170Z" fill="#007274"></path><path d="M0 388L61 388L61 496L123 496L123 640L184 640L184 415L245 415L245 523L307 523L307 496L368 496L368 442L430 442L430 514L491 514L491 415L552 415L552 541L614 541L614 460L675 460L675 505L675 404L675 404L614 404L614 467L552 467L552 296L491 296L491 377L430 377L430 296L368 296L368 404L307 404L307 377L245 377L245 314L184 314L184 575L123 575L123 404L61 404L61 314L0 314Z" fill="#005060"></path><path d="M0 685L61 685L61 649L123 649L123 802L184 802L184 721L245 721L245 730L307 730L307 820L368 820L368 667L430 667L430 730L491 730L491 703L552 703L552 757L614 757L614 712L675 712L675 748L675 503L675 458L614 458L614 539L552 539L552 413L491 413L491 512L430 512L430 440L368 440L368 494L307 494L307 521L245 521L245 413L184 413L184 638L123 638L123 494L61 494L61 386L0 386Z" fill="#022f42"></path><path d="M0 901L61 901L61 901L123 901L123 901L184 901L184 901L245 901L245 901L307 901L307 901L368 901L368 901L430 901L430 901L491 901L491 901L552 901L552 901L614 901L614 901L675 901L675 901L675 746L675 710L614 710L614 755L552 755L552 701L491 701L491 728L430 728L430 665L368 665L368 818L307 818L307 728L245 728L245 719L184 719L184 800L123 800L123 647L61 647L61 683L0 683Z" fill="#001122"></path></svg>